<svg width="512" height="512" viewBox="0 0 512 512" fill="none" xmlns="http://www.w3.org/2000/svg">
  <rect width="512" height="512" rx="112" fill="#050509"/>
  <circle cx="150" cy="122" r="128" fill="#8B5CF6" fill-opacity="0.18"/>
  <circle cx="382" cy="156" r="132" fill="#22D3EE" fill-opacity="0.13"/>
  <circle cx="262" cy="382" r="154" fill="#3B82F6" fill-opacity="0.10"/>
  <path d="M118 118H178L257 224L334 118H394L288 256L404 394H342L256 282L170 394H108L226 256L118 118Z" fill="url(#paint0_linear)"/>
  <path d="M118 118H178L257 224L334 118H394L288 256L404 394H342L256 282L170 394H108L226 256L118 118Z" stroke="white" stroke-opacity="0.18" stroke-width="2"/>
  <path d="M104 412H408" stroke="#22D3EE" stroke-width="18" stroke-linecap="round"/>
  <path d="M104 412H408" stroke="white" stroke-opacity="0.20" stroke-width="5" stroke-linecap="round"/>
  <defs>
    <linearGradient id="paint0_linear" x1="112" y1="114" x2="408" y2="396" gradientUnits="userSpaceOnUse">
      <stop stop-color="#C4B5FD"/>
      <stop offset="0.45" stop-color="#60A5FA"/>
      <stop offset="1" stop-color="#22D3EE"/>
    </linearGradient>
  </defs>
</svg>
